<?xml version="1.0" encoding="utf-8"?>
<!-- Generator: Adobe Illustrator 22.1.0, SVG Export Plug-In . SVG Version: 6.00 Build 0)  -->
<svg version="1.1" id="Layer_1" xmlns="http://www.w3.org/2000/svg" xmlns:xlink="http://www.w3.org/1999/xlink" x="0px" y="0px"
	 viewBox="0 0 200 200" style="enable-background:new 0 0 200 200;" xml:space="preserve">
<style type="text/css">
	.st0{fill:#8CF195;}
	.st1{fill:#273133;}
	.st2{opacity:0.17;}
	.st3{fill:#1D1D1B;}
</style>
<g>
	<g>
		<g>
			<path class="st0" d="M157.4,71.2h35.4c4,0,7.2,3.2,7.2,7.2v67.5c0,4-3.2,7.2-7.2,7.2h-12.6v26.5l-21.9-26.5H96.8
				c-4,0-7.2-3.2-7.2-7.2v-22.4v-10.3V78.5c0-4,3.2-7.2,7.2-7.2h49.4H157.4z"/>
		</g>
	</g>
	<g>
		<g>
			<path class="st0" d="M145.8,28.3H18.3c-5.5,0-10,4.5-10,10v73.9c0,5.5,4.5,10,10,10H34v36.7l30.3-36.7h81.5c5.5,0,10-4.5,10-10
				V38.3C155.7,32.8,151.3,28.3,145.8,28.3z"/>
		</g>
	</g>
	<g>
		<g>
			<path class="st1" d="M28.1,155.7c-0.3,0-0.5,0-0.8-0.1c-1-0.3-1.6-1.3-1.6-2.3V119H12.4C5.5,119,0,113.4,0,106.6V32.7
				c0-6.8,5.5-12.4,12.4-12.4h127.5c6.8,0,12.4,5.6,12.4,12.4v73.9c0,6.8-5.5,12.4-12.4,12.4H59.5L30,154.8
				C29.5,155.4,28.8,155.7,28.1,155.7z M12.4,25.1c-4.2,0-7.6,3.4-7.6,7.6v73.9c0,4.2,3.4,7.6,7.6,7.6h15.7c1.3,0,2.4,1.1,2.4,2.4
				v30l26-31.5c0.5-0.6,1.1-0.9,1.9-0.9h81.5c4.2,0,7.6-3.4,7.6-7.6V32.7c0-4.2-3.4-7.6-7.6-7.6H12.4z"/>
		</g>
	</g>
	<g>
		<g>
			<path class="st1" d="M84.4,106.3h-4.8V71.5c0-5.3,4.3-9.6,9.6-9.6h49.4v4.8H89.2c-2.6,0-4.8,2.2-4.8,4.8V106.3z"/>
		</g>
	</g>
	<g>
		<g>
			<path class="st1" d="M172.6,175.2c-0.7,0-1.4-0.3-1.9-0.9l-21.2-25.7H89.2c-5.3,0-9.6-4.3-9.6-9.6v-22.4h4.8V139
				c0,2.6,2.2,4.8,4.8,4.8h61.5c0.7,0,1.4,0.3,1.9,0.9l17.6,21.4v-19.8c0-1.3,1.1-2.4,2.4-2.4h12.6c2.6,0,4.8-2.2,4.8-4.8V71.5
				c0-2.6-2.2-4.8-4.8-4.8h-35.4v-4.8h35.4c5.3,0,9.6,4.3,9.6,9.6V139c0,5.3-4.3,9.6-9.6,9.6H175v24.1c0,1-0.6,1.9-1.6,2.3
				C173.2,175.1,172.9,175.2,172.6,175.2z"/>
		</g>
	</g>
	<g>
		<g>
			<path class="st1" d="M54.9,69.2v-4.8h4.8v4.8C54.9,69.2,59.7,69.2,54.9,69.2z M43.8,69.2v-4.8h4.8v4.8
				C43.8,69.2,48.6,69.2,43.8,69.2z M32.7,69.2v-4.8h4.8v4.8C32.7,69.2,37.5,69.2,32.7,69.2z"/>
		</g>
	</g>
	<g>
		<g>
			<path class="st1" d="M125.3,93.4v-4.8h4.8v4.8C125.3,93.4,130.1,93.4,125.3,93.4z M114.2,93.4v-4.8h4.8v4.8
				C114.2,93.4,119,93.4,114.2,93.4z M103.1,93.4v-4.8h4.8v4.8C103.1,93.4,107.9,93.4,103.1,93.4z"/>
		</g>
	</g>
	<g class="st2">
		<g>
			<g>
				<path class="st3" d="M8.3,110v2.2c0,5.5,4.5,10,10,10h9.8V110H8.3z"/>
			</g>
		</g>
		<g>
			<g>
				<path class="st3" d="M145.8,28.3h-3.6v71.7c0,5.5-4.5,10-10,10H50.7L34,130.2v28.6l30.3-36.7h81.5c5.5,0,10-4.5,10-10V38.3
					C155.7,32.8,151.3,28.3,145.8,28.3z"/>
			</g>
		</g>
	</g>
	<g class="st2">
		<g>
			<g>
				<path class="st3" d="M192.8,71.2h-8.4v60.5c0,4-3.2,7.2-7.2,7.2h-12.6v21.9l15.6,18.9v-26.5h12.6c4,0,7.2-3.2,7.2-7.2V78.5
					C200,74.5,196.8,71.2,192.8,71.2z"/>
			</g>
		</g>
		<g>
			<g>
				<path class="st3" d="M89.6,138.9v7c0,4,3.2,7.2,7.2,7.2h57.6l-11.7-14.2H89.6z"/>
			</g>
		</g>
	</g>
</g>
</svg>
