<?xml version="1.0" encoding="utf-8"?>
<!-- Generator: Adobe Illustrator 22.1.0, SVG Export Plug-In . SVG Version: 6.00 Build 0)  -->
<svg version="1.1" id="KATENNA" xmlns="http://www.w3.org/2000/svg" xmlns:xlink="http://www.w3.org/1999/xlink" x="0px" y="0px"
	 viewBox="0 0 648 144" style="enable-background:new 0 0 648 144;" xml:space="preserve">
<style type="text/css">
	.st0{fill:#FFFFFF;}
</style>
<path id="A_-2" class="st0" d="M586.3,89l-4.1-7.2c-4.4,0-11.7,0-15.9,0l-4,7.2l-8.1-3.4l20.1-32.8L594,85.6L586.3,89z M574.3,67.5
	l-4.5,7.4h8.8L574.3,67.5z"/>
<path id="N_-2" class="st0" d="M480.6,69.6c0,0.6,0,1.6,0,2.3c0,5.7,0,13.7,0,16.3h-8.8c0-3.8,0-35.4,0-35.4l26.3,20.2
	c0-0.5-0.1-1.2-0.1-1.7c0-6.2,0-14.2,0-16.7h8.8c0,3.8,0,35.4,0,35.4L480.6,69.6z"/>
<path id="N_-1" class="st0" d="M395.9,69.6c0,0.6,0,1.6,0,2.3c0,5.7,0,13.7,0,16.3h-8.8c0-3.8,0-35.4,0-35.4l26.3,20.2
	c0-0.5-0.1-1.2-0.1-1.7c0-6.2,0-14.2,0-16.7h8.8c0,3.8,0,35.4,0,35.4L395.9,69.6z"/>
<path id="E" class="st0" d="M308.3,87.9V54.3c0,0,18.4,0,23,0v8.2c-3.9,0-10.3,0-14.2,0v4.6c4.6,0,10.7,0,14.2,0v8.1
	c-3.7,0-9.5,0-14.2,0v4.6c4.4,0,10.7,0,14.2,0v8.2C326.8,87.9,308.3,87.9,308.3,87.9z"/>
<path id="T" class="st0" d="M240.2,62.7c0,7.8,0,21.7,0,25.4h-8.8c0-3.6,0-17.6,0-25.4c-4.5,0-8.5,0-11.5,0v-8.2
	c4.4,0,27.3,0,31.9,0v8.2C248.7,62.7,244.7,62.7,240.2,62.7z"/>
<path id="A_-1" class="st0" d="M163,89l-4.1-7.2c-4.4,0-11.7,0-15.9,0l-4,7.2l-8.1-3.4L151,52.8l19.7,32.8L163,89z M151,67.5
	l-4.5,7.4h8.8L151,67.5z"/>
<path id="K" class="st0" d="M75.8,89.2c0,0-6.6-6.4-11-10.3c-0.6-0.6-2.1-2.1-2.1-2.1c0,3.8,0,8.9,0,11.3H54c0-3.9,0-29.7,0-33.6
	h8.8c0,2.5,0,7.6,0,11.3c0,0,1.5-1.6,2.5-2.3c4.1-4,10.6-10,10.6-10l6.3,5.5L68.1,71.4l14.1,12L75.8,89.2z"/>
<path id="Border" class="st0" d="M640.2,7.8v128.3H7.8V7.8H640.2 M648,0H0v144h648V0L648,0z"/>
</svg>
