<?xml version="1.0" encoding="utf-8"?>
<!-- Generator: Adobe Illustrator 22.1.0, SVG Export Plug-In . SVG Version: 6.00 Build 0)  -->
<svg version="1.1" id="KATENNA" xmlns="http://www.w3.org/2000/svg" xmlns:xlink="http://www.w3.org/1999/xlink" x="0px" y="0px"
	 viewBox="0 0 144 144" style="enable-background:new 0 0 144 144;" xml:space="preserve">
<style type="text/css">
	.st0{fill:#FFFFFF;}
</style>
<path id="K" class="st0" d="M79.7,89.8c0,0-6.6-6.4-11-10.3c-0.6-0.6-2.1-2.1-2.1-2.1c0,3.8,0,8.9,0,11.3h-8.7c0-3.9,0-29.7,0-33.6
	h8.8c0,2.5,0,7.6,0,11.3c0,0,1.5-1.6,2.5-2.3c4.1-4,10.6-10,10.6-10l6.3,5.5L72,72.1l14.1,12L79.7,89.8z"/>
<path id="Border" class="st0" d="M136.2,7.8v128.3H7.8V7.8H136.2 M144,0H0v144h144V0L144,0z"/>
</svg>
