<?xml version="1.0" encoding="utf-8"?>
<!-- Generator: Adobe Illustrator 22.1.0, SVG Export Plug-In . SVG Version: 6.00 Build 0)  -->
<svg version="1.1" id="Layer_1" xmlns="http://www.w3.org/2000/svg" xmlns:xlink="http://www.w3.org/1999/xlink" x="0px" y="0px"
	 viewBox="0 0 200 200" style="enable-background:new 0 0 200 200;" xml:space="preserve">
<style type="text/css">
	.st0{fill:#E6CDA2;}
	.st1{opacity:0.17;}
	.st2{fill:#1D1D1B;}
	.st3{fill:#2888BE;}
	.st4{fill:#FCF2D7;}
	.st5{fill:#273133;}
	.st6{fill:#8CF195;}
</style>
<g>
	<g>
		<g>
			<g>
				<path class="st0" d="M60,126.2v7.2c0,12.2,2.2,12.6,2.2,12.6c2.1,3,5.6,4.9,9.6,4.9h61.1h-5.6v-26.5l-67.3,0V126.2z"/>
			</g>
		</g>
		<g>
			<g>
				<path class="st0" d="M127.5,6.5H74.6C66.5,6.5,60,13,60,21v8.4h82V21C142,13,135.5,6.5,127.5,6.5z"/>
			</g>
		</g>
	</g>
	<g class="st1">
		<g>
			<g>
				<path class="st2" d="M128.2,124.4l-5.4,0v18.8H63.2c-0.8,0-1.7-0.1-2.5-0.3c0.7,2.9,1.5,3.1,1.5,3.1c2.1,3,5.6,4.9,9.6,4.9h61.1
					h-4.8V124.4z"/>
			</g>
		</g>
		<g>
			<g>
				<path class="st2" d="M132.1,7.3c0.8,1.8,1.3,3.9,1.3,6v8.4H60v7.7h82V21C142,14.6,137.9,9.2,132.1,7.3z"/>
			</g>
		</g>
	</g>
	<g>
		<g>
			
				<rect x="132.4" y="155.1" transform="matrix(0.7071 -0.7071 0.7071 0.7071 -68.2242 167.0337)" class="st3" width="70.2" height="21.6"/>
		</g>
	</g>
	<g>
		<g>
			
				<rect x="132.4" y="155.1" transform="matrix(0.7071 -0.7071 0.7071 0.7071 -68.2242 167.0337)" class="st3" width="70.2" height="21.6"/>
		</g>
	</g>
	<g class="st1">
		<g>
			<g>
				<polygon class="st2" points="200,148.7 184.7,133.4 177.2,140.9 186.6,150.2 144.4,192.4 150.3,198.4 				"/>
			</g>
		</g>
	</g>
	<g>
		<g>
			<g>
				<path class="st4" d="M57.5,142.7l0.2-0.2c3.2-3.2,3.2-8.5,0-11.7l-7-7c-3.2-3.2-8.5-3.2-11.7,0l-0.2,0.2
					c-3.2,3.2-3.2,8.5,0,11.7l7,7C49,145.9,54.2,145.9,57.5,142.7z"/>
			</g>
		</g>
		<g>
			<g>
				<path class="st4" d="M58.4,120.5l0.2-0.2c3.2-3.2,3.2-8.5,0-11.7l-7-7c-3.2-3.2-8.5-3.2-11.7,0l-0.2,0.2
					c-3.2,3.2-3.2,8.5,0,11.7l7,7C50,123.7,55.2,123.7,58.4,120.5z"/>
			</g>
		</g>
		<g>
			<g>
				<path class="st4" d="M60.4,98.3l0.2-0.2c3.2-3.2,3.2-8.5,0-11.7l-7-7c-3.2-3.2-8.5-3.2-11.7,0l-0.2,0.2c-3.2,3.2-3.2,8.5,0,11.7
					l7,7C52,101.5,57.2,101.5,60.4,98.3z"/>
			</g>
		</g>
		<g>
			<g>
				<path class="st4" d="M39.7,53.8l0.2-0.2c3.2-3.2,8.5-3.2,11.7,0l4.4,4.4v22.3c-1.3-0.4-2.5-1-3.5-2L39.7,65.5
					C36.5,62.3,36.5,57.1,39.7,53.8z"/>
			</g>
		</g>
	</g>
	<g>
		<g>
			<path class="st4" d="M177.5,135.2L166,123.6l1-14.9c0.7-10.4-2.7-23.4-7.6-33c-3.2-6.3-7.2-24.7-7.2-24.7c-1-2.8-3.5-4.7-6.4-5.2
				l0,0c-3.7-0.5-7.2,1.5-8.7,4.9c-2,4.6-3.8,12.3-2,23.7c2.1,13.3,5,19.2,5,19.2s-16.8,20.7-6,53.8l-0.9-2.9H78.8
				c25.5,27.4,48.6,23.3,48.6,23.3l8.7,8.7L177.5,135.2z"/>
		</g>
	</g>
	<g>
		<g>
			<path class="st5" d="M127.5,150.4c-9.7-29.9,2.1-49.9,5.5-54.9c-1-2.5-3.1-8.5-4.7-18.6c-1.9-12.2,0.1-20.3,2.1-25
				c1.9-4.3,6.5-6.9,11.1-6.2c3.8,0.6,6.9,3.1,8.3,6.7c0.1,0.5,4,18.5,7.1,24.5c5.5,10.7,8.5,24.1,7.9,34.2l-0.9,13.8l10.8,10.8
				l-3.3,3.3l-12.3-12.3l1.1-15.9c0.6-9.3-2.3-21.8-7.4-31.7c-3.3-6.5-7.2-24.5-7.4-25.3c-0.6-1.6-2.4-3.1-4.5-3.4
				c-2.6-0.4-5.1,1.1-6.2,3.5c-1.8,4.1-3.6,11.3-1.8,22.4c2,12.7,4.8,18.5,4.8,18.6l0.6,1.3l-0.9,1.2c-0.2,0.2-15.8,20.2-5.6,51.7
				L127.5,150.4z"/>
		</g>
	</g>
	<g>
		<g>
			<path class="st5" d="M130,180.4l-7.9-7.9c-5.3,0.5-26.4,0.5-49.4-24.2l3.4-3.2c24.2,26,46.3,22.6,46.5,22.6l1.2-0.2l9.5,9.5
				L130,180.4z"/>
		</g>
	</g>
	<g>
		<g>
			<polygon class="st5" points="141,200 124,183.1 177,130.1 193.9,147 190.6,150.3 177,136.7 130.6,183.1 144.3,196.7 			"/>
		</g>
	</g>
	<g>
		<g>
			<path class="st5" d="M51.6,147.4c-2.7,0-5.4-1-7.5-3.1l-7-7c-4.1-4.1-4.1-10.8,0-15c4.3-4.3,11-4.3,15.1-0.2l7,7
				c2,2,3.1,4.7,3.1,7.5c0,2.8-1.1,5.5-3.1,7.5l-1.8-1.5l1.6,1.6C57.1,146.4,54.3,147.4,51.6,147.4z M44.8,123.8
				c-1.5,0-3,0.6-4.2,1.7c-2.5,2.5-2.5,6.2-0.2,8.6l7,7c2.3,2.3,6.1,2.3,8.4,0l0.2-0.2c1.1-1.1,1.7-2.6,1.7-4.2
				c0-1.6-0.6-3.1-1.7-4.2l-7-7C47.8,124.3,46.3,123.8,44.8,123.8z"/>
		</g>
	</g>
	<g>
		<g>
			<path class="st5" d="M52.6,125.2c-2.7,0-5.4-1-7.5-3.1l-7-7c-4.1-4.1-4.1-10.8,0-15c4.3-4.3,11-4.3,15.1-0.2l7,7
				c4.1,4.1,4.1,10.8,0,15l-0.2,0.2C58,124.2,55.3,125.2,52.6,125.2z M45.8,101.6c-1.5,0-3,0.6-4.2,1.7c-2.5,2.5-2.5,6.2-0.2,8.6
				l7,7c2.3,2.3,6.1,2.3,8.4,0l0.2-0.2c2.3-2.3,2.3-6.1,0-8.4l-7-7C48.8,102.1,47.3,101.6,45.8,101.6z"/>
		</g>
	</g>
	<g>
		<g>
			<path class="st5" d="M54.6,103c-2.7,0-5.4-1-7.5-3.1l-7-7c-4.1-4.1-4.1-10.8,0-15c4.3-4.3,11-4.3,15.1-0.2l7,7
				c4.1,4.1,4.1,10.8,0,15l-0.2,0.2C60,102,57.3,103,54.6,103z M47.8,79.3c-1.5,0-3,0.6-4.2,1.7c-2.5,2.5-2.5,6.2-0.2,8.6l7,7
				c2.3,2.3,6.1,2.3,8.4,0l0.2-0.2c2.3-2.3,2.3-6.1,0-8.4l-7-7C50.8,79.9,49.3,79.3,47.8,79.3z"/>
		</g>
	</g>
	<g>
		<g>
			<path class="st5" d="M58.3,81.8h-4.7V16.9C53.6,7.6,61.2,0,70.5,0h52.9c9.3,0,16.9,7.6,16.9,16.9v31.2h-4.7V16.9
				c0-6.8-5.5-12.2-12.2-12.2H70.5c-6.8,0-12.2,5.5-12.2,12.2V81.8z"/>
		</g>
	</g>
	<g>
		<g>
			<path class="st5" d="M128.9,149.1H67.8c-4.5,0-8.8-2.2-11.4-5.8l3.8-2.7c1.8,2.5,4.6,3.9,7.7,3.9h61.1V149.1z"/>
		</g>
	</g>
	<g>
		<g>
			<rect x="53.6" y="122.1" class="st5" width="4.7" height="7.2"/>
		</g>
	</g>
	<g>
		<g>
			<rect x="53.6" y="100.7" class="st5" width="4.7" height="5.3"/>
		</g>
	</g>
	<g>
		<g>
			<path class="st5" d="M58.3,83.5l-3-0.9c-1.7-0.5-3.2-1.4-4.4-2.6L38.1,67.2c-4.1-4.1-4.1-10.8,0-15l0.2-0.2
				c4.1-4.1,10.9-4.1,15,0l5.1,5.1V83.5z M45.7,53.6c-1.5,0-3,0.6-4.2,1.7l-0.2,0.2c-2.3,2.3-2.3,6.1,0,8.4l12.3,12.3V59l-3.7-3.7
				C48.7,54.2,47.2,53.6,45.7,53.6z"/>
		</g>
	</g>
	<g>
		<g>
			<rect x="59.1" y="117.9" class="st5" width="67.5" height="4.7"/>
		</g>
	</g>
	<g>
		<g>
			<rect x="84.5" y="130.9" class="st5" width="25" height="4.7"/>
		</g>
	</g>
	<g>
		<g>
			<rect x="56" y="23" class="st5" width="82" height="4.7"/>
		</g>
	</g>
	<g>
		<g>
			<g>
				<rect x="84.3" y="12.1" class="st5" width="4.5" height="4.7"/>
			</g>
		</g>
		<g>
			<g>
				<rect x="92.4" y="12.1" class="st5" width="17.2" height="4.7"/>
			</g>
		</g>
	</g>
	<g>
		<g>
			
				<rect x="138.8" y="181.4" transform="matrix(0.7066 -0.7077 0.7077 0.7066 -88.4693 153.7142)" class="st5" width="4.7" height="4.2"/>
		</g>
	</g>
	<g>
		<g>
			
				<rect x="145.3" y="188" transform="matrix(0.7071 -0.7071 0.7071 0.7071 -91.1442 160.0485)" class="st5" width="4.7" height="4.2"/>
		</g>
	</g>
	<g class="st1">
		<g>
			<g>
				<path class="st2" d="M177.4,135.1l-11.5-11.5l1-14.9c0.7-10.4-2.7-23.4-7.6-33c-3.2-6.3-7.2-24.7-7.2-24.7
					c-1-2.8-3.5-4.7-6.4-5.2c-3.1-0.5-6.1,1-7.8,3.5c1.9,0.9,3.5,2.5,4.3,4.5c0,0,4,18.4,7.2,24.7c4.9,9.6,8.3,22.6,7.6,33l-1,14.9
					l11.5,11.5l-35,35l3.5,3.5L177.4,135.1z"/>
			</g>
		</g>
	</g>
</g>
<g>
	<g>
		<g>
			<g>
				<path class="st6" d="M99.5,42.3c-13.3,0-24,8.8-24,19.7c0,5.9,3.2,11.2,8.2,14.8v10.7l9-6.6c2.2,0.5,4.4,0.8,6.8,0.8
					c13.3,0,24-8.8,24-19.7S112.7,42.3,99.5,42.3z"/>
			</g>
		</g>
	</g>
	<g>
		<g>
			<g>
				<path class="st5" d="M79.9,87c-0.2,0-0.4,0-0.6-0.1c-0.4-0.2-0.7-0.6-0.7-1.1V75.7c-5.2-4-8.2-9.5-8.2-15.4
					c0-11.5,11.3-20.9,25.2-20.9c13.9,0,25.2,9.4,25.2,20.9c0,11.5-11.3,20.9-25.2,20.9c-2.2,0-4.4-0.2-6.5-0.7l-8.6,6.3
					C80.4,87,80.1,87,79.9,87z M95.7,41.9C83.2,41.9,73,50.1,73,60.3c0,5.2,2.8,10.3,7.7,13.8c0.3,0.2,0.5,0.6,0.5,1v8.3l7-5.2
					c0.3-0.2,0.7-0.3,1-0.2c2.1,0.5,4.3,0.8,6.5,0.8c12.5,0,22.8-8.3,22.8-18.4C118.5,50.1,108.3,41.9,95.7,41.9z"/>
			</g>
		</g>
		<g>
			<g>
				<path class="st5" d="M105.7,62.4v-2.5h2.5v2.5C105.7,62.4,108.2,62.4,105.7,62.4z M100,62.4v-2.5h2.5v2.5
					C100,62.4,102.5,62.4,100,62.4z M94.3,62.4v-2.5h2.5v2.5C94.3,62.4,96.8,62.4,94.3,62.4z M88.5,62.4v-2.5H91v2.5
					C88.5,62.4,91,62.4,88.5,62.4z M82.8,62.4v-2.5h2.5v2.5C82.8,62.4,85.3,62.4,82.8,62.4z"/>
			</g>
		</g>
	</g>
	<g class="st1">
		<g>
			<g>
				<path class="st2" d="M111.7,45c3.3,3.4,5.3,7.7,5.3,12.3C117,68.2,106.2,77,93,77c-2.4,0-4.7-0.3-6.8-0.8l-2.5,1.9v9.3l9-6.6
					c2.2,0.5,4.4,0.8,6.8,0.8c13.3,0,24-8.8,24-19.7C123.5,54.7,118.7,48.5,111.7,45z"/>
			</g>
		</g>
	</g>
</g>
</svg>
