<?xml version="1.0" encoding="utf-8"?>
<!-- Generator: Adobe Illustrator 22.1.0, SVG Export Plug-In . SVG Version: 6.00 Build 0)  -->
<svg version="1.1" id="Layer_1" xmlns="http://www.w3.org/2000/svg" xmlns:xlink="http://www.w3.org/1999/xlink" x="0px" y="0px"
	 viewBox="0 0 200 200" style="enable-background:new 0 0 200 200;" xml:space="preserve">
<style type="text/css">
	.st0{fill:#FDC536;}
	.st1{opacity:0.22;}
	.st2{fill:#1D1D1B;}
	.st3{fill:#FFFFFF;}
	.st4{fill:#88DFF0;}
	.st5{fill:#FCF2D7;}
	.st6{fill:#273133;}
</style>
<g>
	<g>
		<g>
			<rect x="29" y="21.3" class="st0" width="128.9" height="19"/>
		</g>
	</g>
	<g>
		<g>
			<rect x="48.1" y="2.2" class="st0" width="123.3" height="19"/>
		</g>
	</g>
	<g class="st1">
		<g>
			<rect x="48.1" y="10.5" class="st2" width="123.3" height="9.5"/>
		</g>
	</g>
	<g class="st1">
		<g>
			<rect x="31.1" y="29.4" class="st2" width="126.8" height="9.8"/>
		</g>
	</g>
	<g>
		<g>
			<path class="st3" d="M177.6,47h3.1c5.6,0,10.2,4.6,10.2,10.2v103.6c0,5.6-4.6,10.2-10.2,10.2H19.3c-5.6,0-10.2-4.6-10.2-10.2
				V57.2c0-5.6,4.6-10.2,10.2-10.2h4.2H177.6z"/>
		</g>
	</g>
	<g>
		<g>
			<path class="st4" d="M135.2,98.7c0-1.3-0.1-2.6-0.2-3.9l-10-3.6c-0.7-2.4-1.6-4.7-2.9-6.9l4.6-9.6c-1.6-2-3.5-3.9-5.5-5.5
				l-9.6,4.6c-2.1-1.2-4.4-2.2-6.8-2.8l-3.6-10c-1.3-0.1-2.5-0.2-3.8-0.2s-2.6,0.1-3.8,0.2l-3.6,10c-2.4,0.6-4.7,1.6-6.8,2.8
				l-9.6-4.6c-2,1.6-3.9,3.5-5.5,5.5l4.6,9.6c-1.2,2.1-2.2,4.4-2.9,6.9l-10,3.6c-0.1,1.3-0.2,2.6-0.2,3.9c0,1.3,0.1,2.6,0.2,3.9
				l10,3.6c0.7,2.4,1.6,4.7,2.9,6.9l-4.6,9.6c1.6,2,3.5,3.9,5.5,5.5l9.6-4.6c2.1,1.2,4.4,2.2,6.8,2.8l3.6,10
				c1.3,0.1,2.5,0.2,3.8,0.2s2.6-0.1,3.8-0.2l3.6-10c2.4-0.6,4.7-1.6,6.8-2.8l9.6,4.6c2-1.6,3.9-3.5,5.5-5.5l-4.6-9.6
				c1.2-2.1,2.2-4.4,2.9-6.9l10-3.6C135.1,101.3,135.2,100,135.2,98.7z"/>
		</g>
	</g>
	<g class="st1">
		<g>
			<g>
				<path class="st2" d="M135,102.5c0.1-1.3,0.2-2.6,0.2-3.9c0-1.3-0.1-2.6-0.2-3.9l-6.5-2.3c0,0.6,0,1.2-0.1,1.8l-10,3.6
					c-0.7,2.4-1.6,4.7-2.9,6.9l4.6,9.6c-1.6,2-3.5,3.9-5.5,5.5l-9.6-4.6c-2.1,1.2-4.4,2.2-6.8,2.8l-3.6,10c-1.3,0.1-2.5,0.2-3.8,0.2
					c0,0-0.1,0-0.1,0l2.9,8.1c1.3,0.1,2.5,0.2,3.8,0.2s2.6-0.1,3.8-0.2l3.6-10c2.4-0.6,4.7-1.6,6.8-2.8l9.6,4.6
					c2-1.6,3.9-3.5,5.5-5.5l-4.6-9.6c1.2-2.1,2.2-4.4,2.9-6.9L135,102.5z"/>
			</g>
		</g>
	</g>
	<g>
		<g>
			<path class="st3" d="M111.6,97.4c0,7.9-6.4,14.3-14.3,14.3S83,105.3,83,97.4c0-7.9,6.4-14.3,14.3-14.3S111.6,89.5,111.6,97.4z"/>
		</g>
	</g>
	<g>
		<g>
			<path class="st5" d="M9.1,150.1h181.8v10.6c0,5.7-4.6,10.4-10.4,10.4H19.4c-5.7,0-10.4-4.6-10.4-10.4V150.1z"/>
		</g>
	</g>
	<g class="st1">
		<g>
			<path class="st2" d="M9.1,163.8c0,4,4.6,7.2,10.4,7.2h161.1c5.7,0,10.4-3.2,10.4-7.2v-2.1H9.1V163.8z"/>
		</g>
	</g>
	<g>
		<g>
			<path class="st5" d="M114.6,171H84.8l-16.5,20.1c-2,2.8,0,6.7,3.5,6.7h55.9c3.4,0,5.4-3.9,3.5-6.7L114.6,171z"/>
		</g>
	</g>
	<g class="st1">
		<g>
			<path class="st2" d="M122.4,177.8H77.6l-9,13.5c-2,3.5,0,8.2,3.5,8.2h55.9c3.4,0,5.4-4.7,3.5-8.2L122.4,177.8z"/>
		</g>
	</g>
	<g>
		<g>
			<path class="st6" d="M180.7,173.2H19.3c-6.8,0-12.4-5.6-12.4-12.4V57.2c0-6.8,5.6-12.4,12.4-12.4h4.2v4.4h-4.2c-4.4,0-8,3.6-8,8
				v103.6c0,4.4,3.6,8,8,8h161.4c4.4,0,8-3.6,8-8V57.2c0-4.4-3.6-8-8-8h-3.1v-4.4h3.1c6.8,0,12.4,5.6,12.4,12.4v103.6
				C193.1,167.7,187.6,173.2,180.7,173.2z"/>
		</g>
	</g>
	<g>
		<g>
			<rect x="9.1" y="147.9" class="st6" width="181.8" height="4.4"/>
		</g>
	</g>
	<g>
		<g>
			<path class="st6" d="M127.7,200H71.8c-2.4,0-4.6-1.3-5.7-3.5c-1.1-2.1-0.9-4.7,0.4-6.7l17.3-21h31.9l17.2,20.9
				c1.5,2.1,1.7,4.7,0.5,6.8C132.3,198.7,130.1,200,127.7,200z M85.9,173.2L70,192.5c-0.5,0.8-0.2,1.6,0,2c0.2,0.3,0.7,1.1,1.8,1.1
				h55.9c1.1,0,1.6-0.8,1.8-1.1c0.2-0.3,0.5-1.2-0.1-2.1l-15.7-19.2H85.9z"/>
		</g>
	</g>
	<g>
		<g>
			<polygon class="st6" points="160.1,117.7 155.7,117.7 155.7,23.5 31.2,23.5 31.2,89.8 26.8,89.8 26.8,19 160.1,19 			"/>
		</g>
	</g>
	<g>
		<g>
			<rect x="37.9" y="29.5" class="st6" width="4.9" height="4.4"/>
		</g>
	</g>
	<g>
		<g>
			<rect x="47.5" y="29.5" class="st6" width="4.9" height="4.4"/>
		</g>
	</g>
	<g>
		<g>
			<rect x="57.2" y="29.5" class="st6" width="4.9" height="4.4"/>
		</g>
	</g>
	<g>
		<g>
			<rect x="29" y="38.1" class="st6" width="128.9" height="4.4"/>
		</g>
	</g>
	<g>
		<g>
			<polygon class="st6" points="173.6,98.7 169.2,98.7 169.2,4.4 50.3,4.4 50.3,21.2 45.9,21.2 45.9,0 173.6,0 			"/>
		</g>
	</g>
	<g>
		<g>
			<rect x="56.9" y="10.5" class="st6" width="4.9" height="4.4"/>
		</g>
	</g>
	<g>
		<g>
			<rect x="66.6" y="10.5" class="st6" width="4.9" height="4.4"/>
		</g>
	</g>
	<g>
		<g>
			<rect x="76.3" y="10.5" class="st6" width="4.9" height="4.4"/>
		</g>
	</g>
	<g>
		<g>
			<rect x="157.9" y="19" class="st6" width="13.5" height="4.4"/>
		</g>
	</g>
	<g>
		<g>
			<path class="st6" d="M26.8,130.1v-4.4h4.4v4.4C26.8,130.1,31.2,130.1,26.8,130.1z M26.8,119.9v-4.4h4.4v4.4
				C26.8,119.9,31.2,119.9,26.8,119.9z M26.8,109.8v-4.4h4.4v4.4C26.8,109.8,31.2,109.8,26.8,109.8z M26.8,99.6v-4.4h4.4v4.4
				C26.8,99.6,31.2,99.6,26.8,99.6z"/>
		</g>
	</g>
	<g>
		<g>
			<path class="st6" d="M93.5,135.1c-1.4,0-2.7-0.1-4.1-0.2l-1.4-0.1l-3.7-10.3c-1.8-0.6-3.6-1.3-5.2-2.1l-9.8,4.7l-1.1-0.9
				c-2.1-1.7-4.1-3.7-5.8-5.8l-0.9-1.1l4.7-9.8c-0.9-1.7-1.6-3.4-2.2-5.3l-10.3-3.7l-0.1-1.4c-0.1-1.3-0.2-2.7-0.2-4.1
				c0-1.4,0.1-2.8,0.2-4.1l0.1-1.4L64,85.8c0.6-1.8,1.3-3.6,2.2-5.3l-4.7-9.8l0.9-1.1c1.7-2.1,3.7-4.1,5.8-5.8l1.1-0.9l9.8,4.7
				c1.7-0.9,3.4-1.6,5.2-2.1L88,55.2l1.4-0.1c2.7-0.3,5.4-0.3,8.1,0l1.4,0.1l3.7,10.3c1.8,0.6,3.6,1.3,5.2,2.1l9.9-4.7l1.1,0.9
				c2.1,1.7,4.1,3.7,5.8,5.8l0.9,1.1l-4.7,9.8c0.9,1.7,1.6,3.4,2.2,5.3l10.3,3.7l0.1,1.4c0.1,1.3,0.2,2.7,0.2,4.1s-0.1,2.8-0.2,4.1
				l-0.1,1.4l-10.3,3.7c-0.6,1.8-1.3,3.6-2.2,5.3l4.7,9.8l-0.9,1.1c-1.7,2.1-3.7,4.1-5.8,5.8l-1.1,0.9l-9.9-4.7
				c-1.7,0.9-3.4,1.6-5.2,2.1l-3.7,10.3l-1.4,0.1C96.2,135,94.8,135.1,93.5,135.1z M91.2,130.6c1.5,0.1,3,0.1,4.5,0l3.5-9.8l1.1-0.3
				c2.2-0.6,4.4-1.5,6.3-2.6l1-0.6l9.4,4.5c1.2-1,2.2-2.1,3.2-3.2l-4.5-9.4l0.6-1c1.1-2,2-4.1,2.6-6.3l0.3-1.1l9.8-3.5
				c0-0.8,0.1-1.5,0.1-2.3s0-1.5-0.1-2.3l-9.8-3.5l-0.3-1.1c-0.6-2.2-1.5-4.4-2.6-6.4l-0.6-1l4.5-9.4c-1-1.1-2.1-2.2-3.2-3.2
				l-9.4,4.5l-1-0.6c-1.9-1.1-4.1-2-6.3-2.6l-1.1-0.3l-3.5-9.8c-1.5-0.1-3-0.1-4.5,0l-3.5,9.8l-1.1,0.3c-2.2,0.6-4.3,1.5-6.3,2.6
				l-1,0.6l-9.4-4.5c-1.2,1-2.2,2.1-3.2,3.2l4.5,9.4l-0.6,1c-1.1,2-2,4.1-2.6,6.4l-0.3,1.1l-9.8,3.5c0,0.8-0.1,1.5-0.1,2.3
				c0,0.8,0,1.5,0.1,2.3l9.8,3.5l0.3,1.1c0.6,2.2,1.5,4.4,2.6,6.3l0.6,1l-4.5,9.4c1,1.1,2.1,2.2,3.2,3.2l9.4-4.5l1,0.6
				c2,1.1,4.1,2,6.3,2.6l1.1,0.3L91.2,130.6z"/>
		</g>
	</g>
	<g>
		<g>
			<path class="st6" d="M93.5,111.5c-9.1,0-16.5-7.4-16.5-16.5c0-9.1,7.4-16.5,16.5-16.5c9.1,0,16.5,7.4,16.5,16.5
				C110,104.1,102.6,111.5,93.5,111.5z M93.5,82.9c-6.7,0-12.1,5.4-12.1,12.1c0,6.7,5.4,12.1,12.1,12.1c6.7,0,12.1-5.4,12.1-12.1
				C105.6,88.3,100.1,82.9,93.5,82.9z"/>
		</g>
	</g>
</g>
</svg>
