<?xml version="1.0" encoding="utf-8"?>
<!-- Generator: Adobe Illustrator 22.1.0, SVG Export Plug-In . SVG Version: 6.00 Build 0)  -->
<svg version="1.1" id="Layer_1" xmlns="http://www.w3.org/2000/svg" xmlns:xlink="http://www.w3.org/1999/xlink" x="0px" y="0px"
	 viewBox="0 0 60 60" style="enable-background:new 0 0 60 60;" xml:space="preserve">
<style type="text/css">
	.st0{fill:#F6C501;}
	.st1{fill:#FFFFFF;}
</style>
<g>
	<path class="st0" d="M60,30c0,16.6-13.4,30-30,30S0,46.6,0,30S13.4,0,30,0S60,13.4,60,30L60,30z"/>
</g>
<path class="st0" d="M30,2c15.4,0,28,12.6,28,28c0,15.4-12.6,28-28,28C14.6,58,2,45.4,2,30C2,14.6,14.6,2,30,2 M30,0
	C13.4,0,0,13.4,0,30s13.4,30,30,30s30-13.4,30-30S46.6,0,30,0L30,0z"/>
<path class="st1" d="M45,27.8H32.2V15.6c0-1.2-1-2.2-2.2-2.2s-2.2,1-2.2,2.2v12.2H15c-1.2,0-2.2,1-2.2,2.2s1,2.2,2.2,2.2h12.8v13.4
	c0,1.2,1,2.2,2.2,2.2s2.2-1,2.2-2.2V32.2H45c1.2,0,2.2-1,2.2-2.2S46.2,27.8,45,27.8z"/>
</svg>
