<?xml version="1.0" encoding="utf-8"?>
<!-- Generator: Adobe Illustrator 22.1.0, SVG Export Plug-In . SVG Version: 6.00 Build 0)  -->
<svg version="1.1" id="Layer_1" xmlns="http://www.w3.org/2000/svg" xmlns:xlink="http://www.w3.org/1999/xlink" x="0px" y="0px"
	 viewBox="0 0 40 40" style="enable-background:new 0 0 40 40;" xml:space="preserve">
<style type="text/css">
	.st0{fill:#F5C515;}
	.st1{fill:#FFFFFF;}
</style>
<path class="st0" d="M40,20c0,11-9,20-20,20S0,31,0,20S9,0,20,0S40,9,40,20L40,20z"/>
<path class="st1" d="M30.9,11.4c-0.3-0.3-0.8-0.3-1.1,0.1L17.5,25.3l-7.4-5.9c-0.3-0.3-0.8-0.2-1.1,0.1c-0.3,0.3-0.2,0.8,0.1,1.1
	l8,6.4c0.1,0.1,0.3,0.2,0.5,0.2c0.2,0,0.4-0.1,0.6-0.3L31,12.5C31.3,12.2,31.3,11.7,30.9,11.4z"/>
</svg>
